<svg width="25" height="25" viewBox="0 0 25 25" fill="none" xmlns="http://www.w3.org/2000/svg">
<mask id="mask0_1967_379" style="mask-type:alpha" maskUnits="userSpaceOnUse" x="0" y="0" width="25" height="25">
<rect x="0.0571289" y="0.5" width="24" height="24" fill="#D9D9D9"/>
</mask>
<g mask="url(#mask0_1967_379)">
<path d="M5.05713 21.5C4.50713 21.5 4.0363 21.3042 3.64463 20.9125C3.25296 20.5208 3.05713 20.05 3.05713 19.5V5.5C3.05713 4.95 3.25296 4.47917 3.64463 4.0875C4.0363 3.69583 4.50713 3.5 5.05713 3.5H9.25713C9.4738 2.9 9.8363 2.41667 10.3446 2.05C10.853 1.68333 11.4238 1.5 12.0571 1.5C12.6905 1.5 13.2613 1.68333 13.7696 2.05C14.278 2.41667 14.6405 2.9 14.8571 3.5H19.0571C19.6071 3.5 20.078 3.69583 20.4696 4.0875C20.8613 4.47917 21.0571 4.95 21.0571 5.5V19.5C21.0571 20.05 20.8613 20.5208 20.4696 20.9125C20.078 21.3042 19.6071 21.5 19.0571 21.5H5.05713ZM5.05713 19.5H19.0571V5.5H5.05713V19.5ZM7.05713 17.5H14.0571V15.5H7.05713V17.5ZM7.05713 13.5H17.0571V11.5H7.05713V13.5ZM7.05713 9.5H17.0571V7.5H7.05713V9.5ZM12.0571 4.75C12.2738 4.75 12.453 4.67917 12.5946 4.5375C12.7363 4.39583 12.8071 4.21667 12.8071 4C12.8071 3.78333 12.7363 3.60417 12.5946 3.4625C12.453 3.32083 12.2738 3.25 12.0571 3.25C11.8405 3.25 11.6613 3.32083 11.5196 3.4625C11.378 3.60417 11.3071 3.78333 11.3071 4C11.3071 4.21667 11.378 4.39583 11.5196 4.5375C11.6613 4.67917 11.8405 4.75 12.0571 4.75Z" fill="white"/>
</g>
</svg>
