<svg width="25" height="25" viewBox="0 0 25 25" fill="none" xmlns="http://www.w3.org/2000/svg">
<mask id="mask0_501_1782" style="mask-type:alpha" maskUnits="userSpaceOnUse" x="0" y="0" width="25" height="25">
<rect x="0.19873" y="0.498779" width="24" height="24" fill="#D9D9D9"/>
</mask>
<g mask="url(#mask0_501_1782)">
<path d="M12.1987 22.4988C10.8321 22.4988 9.5404 22.2361 8.32373 21.7108C7.10706 21.1861 6.04473 20.4694 5.13673 19.5608C4.22806 18.6528 3.5114 17.5904 2.98673 16.3738C2.4614 15.1571 2.19873 13.8654 2.19873 12.4988C2.19873 11.1154 2.4614 9.81978 2.98673 8.61178C3.5114 7.40311 4.22806 6.34478 5.13673 5.43678C6.04473 4.52811 7.10706 3.81111 8.32373 3.28578C9.5404 2.76111 10.8321 2.49878 12.1987 2.49878C13.5821 2.49878 14.8777 2.76111 16.0857 3.28578C17.2944 3.81111 18.3527 4.52811 19.2607 5.43678C20.1694 6.34478 20.8861 7.40311 21.4107 8.61178C21.9361 9.81978 22.1987 11.1154 22.1987 12.4988C22.1987 13.8654 21.9361 15.1571 21.4107 16.3738C20.8861 17.5904 20.1694 18.6528 19.2607 19.5608C18.3527 20.4694 17.2944 21.1861 16.0857 21.7108C14.8777 22.2361 13.5821 22.4988 12.1987 22.4988ZM12.1987 20.4488C12.6321 19.8488 13.0071 19.2238 13.3237 18.5738C13.6404 17.9238 13.8987 17.2321 14.0987 16.4988H10.2987C10.4987 17.2321 10.7571 17.9238 11.0737 18.5738C11.3904 19.2238 11.7654 19.8488 12.1987 20.4488ZM9.59873 20.0488C9.29873 19.4988 9.0364 18.9278 8.81173 18.3358C8.5864 17.7444 8.39873 17.1321 8.24873 16.4988H5.29873C5.78206 17.3321 6.38606 18.0571 7.11073 18.6738C7.83606 19.2904 8.6654 19.7488 9.59873 20.0488ZM14.7987 20.0488C15.7321 19.7488 16.5611 19.2904 17.2857 18.6738C18.0111 18.0571 18.6154 17.3321 19.0987 16.4988H16.1487C15.9987 17.1321 15.8114 17.7444 15.5867 18.3358C15.3614 18.9278 15.0987 19.4988 14.7987 20.0488ZM4.44873 14.4988H7.84873C7.79873 14.1654 7.76106 13.8361 7.73573 13.5108C7.71106 13.1861 7.69873 12.8488 7.69873 12.4988C7.69873 12.1488 7.71106 11.8114 7.73573 11.4868C7.76106 11.1614 7.79873 10.8321 7.84873 10.4988H4.44873C4.3654 10.8321 4.30273 11.1614 4.26073 11.4868C4.2194 11.8114 4.19873 12.1488 4.19873 12.4988C4.19873 12.8488 4.2194 13.1861 4.26073 13.5108C4.30273 13.8361 4.3654 14.1654 4.44873 14.4988ZM9.84873 14.4988H14.5487C14.5987 14.1654 14.6364 13.8361 14.6617 13.5108C14.6864 13.1861 14.6987 12.8488 14.6987 12.4988C14.6987 12.1488 14.6864 11.8114 14.6617 11.4868C14.6364 11.1614 14.5987 10.8321 14.5487 10.4988H9.84873C9.79873 10.8321 9.7614 11.1614 9.73673 11.4868C9.7114 11.8114 9.69873 12.1488 9.69873 12.4988C9.69873 12.8488 9.7114 13.1861 9.73673 13.5108C9.7614 13.8361 9.79873 14.1654 9.84873 14.4988ZM16.5487 14.4988H19.9487C20.0321 14.1654 20.0947 13.8361 20.1367 13.5108C20.1781 13.1861 20.1987 12.8488 20.1987 12.4988C20.1987 12.1488 20.1781 11.8114 20.1367 11.4868C20.0947 11.1614 20.0321 10.8321 19.9487 10.4988H16.5487C16.5987 10.8321 16.6361 11.1614 16.6607 11.4868C16.6861 11.8114 16.6987 12.1488 16.6987 12.4988C16.6987 12.8488 16.6861 13.1861 16.6607 13.5108C16.6361 13.8361 16.5987 14.1654 16.5487 14.4988ZM16.1487 8.49878H19.0987C18.6154 7.66545 18.0111 6.94045 17.2857 6.32378C16.5611 5.70711 15.7321 5.24878 14.7987 4.94878C15.0987 5.49878 15.3614 6.06945 15.5867 6.66078C15.8114 7.25278 15.9987 7.86545 16.1487 8.49878ZM10.2987 8.49878H14.0987C13.8987 7.76545 13.6404 7.07378 13.3237 6.42378C13.0071 5.77378 12.6321 5.14878 12.1987 4.54878C11.7654 5.14878 11.3904 5.77378 11.0737 6.42378C10.7571 7.07378 10.4987 7.76545 10.2987 8.49878ZM5.29873 8.49878H8.24873C8.39873 7.86545 8.5864 7.25278 8.81173 6.66078C9.0364 6.06945 9.29873 5.49878 9.59873 4.94878C8.6654 5.24878 7.83606 5.70711 7.11073 6.32378C6.38606 6.94045 5.78206 7.66545 5.29873 8.49878Z" fill="white"/>
</g>
</svg>
