<svg width="25" height="25" viewBox="0 0 25 25" fill="none" xmlns="http://www.w3.org/2000/svg">
<g clip-path="url(#clip0_1967_737)">
<path d="M19.2285 21.5H5.22852C4.9633 21.5 4.70895 21.3947 4.52141 21.2071C4.33387 21.0196 4.22852 20.7653 4.22852 20.5V11.5H1.22852L11.5555 2.11204C11.7396 1.94452 11.9796 1.85168 12.2285 1.85168C12.4774 1.85168 12.7174 1.94452 12.9015 2.11204L23.2285 11.5H20.2285V20.5C20.2285 20.7653 20.1232 21.0196 19.9356 21.2071C19.7481 21.3947 19.4937 21.5 19.2285 21.5ZM6.22852 19.5H18.2285V9.65704L12.2285 4.20304L6.22852 9.65704V19.5Z" fill="white"/>
</g>
<defs>
<clipPath id="clip0_1967_737">
<rect width="24" height="24" fill="white" transform="translate(0.228516 0.5)"/>
</clipPath>
</defs>
</svg>
