<svg width="109" height="100" viewBox="0 0 109 100" fill="none" xmlns="http://www.w3.org/2000/svg">
<g clip-path="url(#clip0_580_3049)">
<path d="M54.2857 8.33331C79.2707 8.33331 99.5238 26.9875 99.5238 50C99.5238 53.0291 99.1755 55.9791 98.5059 58.825L90.4445 51.3958C90.7764 44.0823 88.4854 36.8714 83.9251 30.8765C79.3648 24.8816 72.7888 20.436 65.2124 18.2259C57.6359 16.0158 49.4803 16.1643 42.0045 18.6483C34.5287 21.1323 28.1486 25.8137 23.8489 31.9699C19.5493 38.126 17.5693 45.4146 18.2146 52.7103C18.86 60.0061 22.0947 66.9033 27.4195 72.3373C32.7443 77.7713 39.8631 81.4398 47.6768 82.7765C55.4905 84.1132 63.5647 83.0438 70.6528 79.7333C72.3795 82.2538 74.8088 84.3014 77.6874 85.6625C70.6311 89.6003 62.5361 91.6772 54.2857 91.6666C29.3007 91.6666 9.04761 73.0125 9.04761 50C9.04761 26.9875 29.3007 8.33331 54.2857 8.33331ZM85.9524 59.05L92.349 64.9416C93.5942 66.0881 94.4492 67.5444 94.8091 69.1318C95.169 70.7192 95.0182 72.3689 94.3752 73.8786C93.7322 75.3883 92.625 76.6923 91.1892 77.6309C89.7534 78.5695 88.0514 79.1019 86.292 79.1627C84.5325 79.2236 82.792 78.8102 81.2839 77.9734C79.7757 77.1366 78.5654 75.9127 77.8013 74.4517C77.0372 72.9907 76.7526 71.3561 76.9822 69.7482C77.2119 68.1404 77.9459 66.6292 79.0943 65.4L79.5557 64.9416L85.9524 59.05ZM54.2857 62.5C60.9176 62.5 66.8845 65.1291 71.0238 69.3208L66.7488 72.9041C63.175 71.5916 58.8909 70.8333 54.2857 70.8333C49.6805 70.8333 45.3964 71.5958 41.8226 72.9L37.5476 69.3166C39.6657 67.1664 42.2495 65.4489 45.1325 64.2748C48.0154 63.1007 51.1335 62.4961 54.2857 62.5ZM38.4524 41.6666C40.2521 41.6666 41.978 42.3251 43.2506 43.4972C44.5232 44.6693 45.2381 46.259 45.2381 47.9166C45.2381 49.5742 44.5232 51.164 43.2506 52.3361C41.978 53.5082 40.2521 54.1666 38.4524 54.1666C36.6527 54.1666 34.9267 53.5082 33.6541 52.3361C32.3816 51.164 31.6667 49.5742 31.6667 47.9166C31.6667 46.259 32.3816 44.6693 33.6541 43.4972C34.9267 42.3251 36.6527 41.6666 38.4524 41.6666ZM70.119 41.6666C71.9187 41.6666 73.6447 42.3251 74.9173 43.4972C76.1898 44.6693 76.9047 46.259 76.9047 47.9166C76.9047 49.5742 76.1898 51.164 74.9173 52.3361C73.6447 53.5082 71.9187 54.1666 70.119 54.1666C68.3194 54.1666 66.5934 53.5082 65.3208 52.3361C64.0482 51.164 63.3333 49.5742 63.3333 47.9166C63.3333 46.259 64.0482 44.6693 65.3208 43.4972C66.5934 42.3251 68.3194 41.6666 70.119 41.6666Z" fill="#A55454"/>
</g>
<defs>
<clipPath id="clip0_580_3049">
<rect width="108.571" height="100" fill="white"/>
</clipPath>
</defs>
</svg>
