<svg width="25" height="25" viewBox="0 0 25 25" fill="none" xmlns="http://www.w3.org/2000/svg">
<g clip-path="url(#clip0_1967_562)">
<path d="M18.7941 20.067C16.9795 21.6393 14.6581 22.5033 12.2571 22.5C6.73408 22.5 2.25708 18.023 2.25708 12.5C2.25708 6.977 6.73408 2.5 12.2571 2.5C17.7801 2.5 22.2571 6.977 22.2571 12.5C22.2571 14.636 21.5871 16.616 20.4471 18.24L17.2571 12.5H20.2571C20.2569 10.6562 19.6199 8.86906 18.4538 7.44089C17.2876 6.01272 15.6639 5.03119 13.8574 4.66236C12.0509 4.29352 10.1724 4.56002 8.53976 5.41677C6.9071 6.27351 5.6205 7.66791 4.8976 9.36408C4.1747 11.0603 4.05989 12.9541 4.57257 14.7251C5.08526 16.4962 6.19397 18.0358 7.71116 19.0836C9.22835 20.1313 11.0609 20.6228 12.8987 20.4749C14.7366 20.327 16.4669 19.5488 17.7971 18.272L18.7941 20.067Z" fill="white"/>
</g>
<defs>
<clipPath id="clip0_1967_562">
<rect width="24" height="24" fill="white" transform="translate(0.25708 0.5)"/>
</clipPath>
</defs>
</svg>
