<svg width="20" height="28" viewBox="0 0 20 28" fill="none" xmlns="http://www.w3.org/2000/svg">
<path fill-rule="evenodd" clip-rule="evenodd" d="M16.4766 10.7491C16.4766 14.482 13.6758 17.5082 10.2207 17.5082C6.76564 17.5082 3.96476 14.482 3.96476 10.7491C3.96476 7.01624 6.76564 3.99012 10.2207 3.99012C13.6758 3.99012 16.4766 7.01624 16.4766 10.7491ZM10.1745 16.0437H10.1626L10.1686 16.0437L10.1745 16.0437ZM9.55999 16.0028C9.58312 15.8203 9.5951 15.6336 9.5951 15.4437C9.5951 13.323 8.1013 11.6038 6.2586 11.6038C5.96033 11.6038 5.6712 11.6489 5.39606 11.7334C5.76643 13.9719 7.45304 15.7177 9.55999 16.0028ZM5.32712 10.5238C5.46255 7.76178 7.57836 5.56723 10.1686 5.56723C12.7588 5.56723 14.8746 7.76178 15.0101 10.5238H5.32712ZM14.9458 11.7047C14.591 13.9206 12.9475 15.6595 10.8795 15.9878C10.8576 15.8101 10.8463 15.6284 10.8463 15.4437C10.8463 13.323 12.3401 11.6038 14.1828 11.6038C14.4453 11.6038 14.7007 11.6387 14.9458 11.7047ZM10.742 11.763C10.742 12.0741 10.5086 12.3262 10.2207 12.3262C9.93275 12.3262 9.69934 12.0741 9.69934 11.763C9.69934 11.4519 9.93275 11.1997 10.2207 11.1997C10.5086 11.1997 10.742 11.4519 10.742 11.763Z" fill="white"/>
<path d="M10.005 0.204163C12.8619 0.204163 15.2441 1.26307 17.1518 3.3809C18.9503 5.37676 19.9014 7.83283 20.005 10.7491H17.5C17.4008 8.57816 16.6959 6.75833 15.3851 5.28965C13.9671 3.70173 12.1737 2.90777 10.005 2.90777C7.83627 2.90777 6.04292 3.70173 4.62491 5.28965C3.31412 6.75833 2.60918 8.57816 2.51005 10.7491H0.00500488C0.108596 7.83284 1.05966 5.37676 2.85821 3.3809C4.76584 1.26307 7.14813 0.204163 10.005 0.204163Z" fill="white"/>
<path d="M16.6964 14.8045C16.4118 15.4661 16.0527 16.153 15.6191 16.8651C14.3579 18.9379 12.4865 21.2022 10.005 23.6579C7.52348 21.2022 5.6517 18.9379 4.38966 16.8651C3.95636 16.153 3.59748 15.4661 3.31305 14.8045H0.613111C1.02748 16.0331 1.65028 17.3111 2.48161 18.6387C4.13987 21.2864 6.64767 24.1536 10.005 27.2402C13.3623 24.1536 15.8698 21.2864 17.5271 18.6387C18.3589 17.3111 18.982 16.0331 19.3966 14.8045H16.6964Z" fill="white"/>
</svg>
