<svg width="153" height="15" viewBox="0 0 153 15" fill="none" xmlns="http://www.w3.org/2000/svg">
<path d="M18.2008 13.8388C18.2541 13.9988 18.2808 14.0854 18.2808 14.0988C18.2808 14.3654 18.1541 14.4988 17.9008 14.4988H14.5808C14.2341 14.4988 13.9941 14.3654 13.8608 14.0988L11.8608 9.09877H11.4008V13.9588C11.4008 14.1054 11.3474 14.2321 11.2408 14.3388C11.1341 14.4454 11.0074 14.4988 10.8608 14.4988H8.22078C8.07411 14.4988 7.94745 14.4454 7.84078 14.3388C7.73411 14.2321 7.68078 14.1054 7.68078 13.9588V9.09877H7.22078L5.22078 14.0988C5.08745 14.3654 4.84745 14.4988 4.50078 14.4988H1.18078C0.927448 14.4988 0.800781 14.3654 0.800781 14.0988C0.800781 14.0854 0.827448 13.9988 0.880781 13.8388L3.72078 7.19877L1.22078 1.15877C1.16745 0.998767 1.14078 0.905434 1.14078 0.878767C1.14078 0.758767 1.17411 0.665433 1.24078 0.598767C1.30745 0.5321 1.39411 0.498767 1.50078 0.498767H4.86078C5.12745 0.498767 5.31411 0.645434 5.42078 0.938767L7.28078 5.73877H7.68078V1.03877C7.68078 0.892101 7.73411 0.765434 7.84078 0.658767C7.94745 0.5521 8.07411 0.498767 8.22078 0.498767H10.8608C11.0074 0.498767 11.1341 0.5521 11.2408 0.658767C11.3474 0.765434 11.4008 0.892101 11.4008 1.03877V5.73877H11.8008L13.6608 0.938767C13.7674 0.645434 13.9541 0.498767 14.2208 0.498767H17.5808C17.6874 0.498767 17.7741 0.5321 17.8408 0.598767C17.9074 0.665433 17.9408 0.758767 17.9408 0.878767C17.9408 0.905434 17.9141 0.998767 17.8608 1.15877L15.3608 7.19877L18.2008 13.8388Z" fill="black"/>
<path d="M23.673 13.8188C23.4996 14.2721 23.1996 14.4988 22.773 14.4988H18.993C18.873 14.4988 18.7663 14.4588 18.673 14.3788C18.593 14.2854 18.553 14.1788 18.553 14.0588L18.573 13.9388L22.933 1.15877C22.9863 0.985434 23.0863 0.832101 23.233 0.698767C23.3796 0.565434 23.5796 0.498767 23.833 0.498767H29.393C29.6463 0.498767 29.8463 0.565434 29.993 0.698767C30.1396 0.832101 30.2396 0.985434 30.293 1.15877L34.653 13.9388L34.673 14.0588C34.673 14.1788 34.6263 14.2854 34.533 14.3788C34.453 14.4588 34.353 14.4988 34.233 14.4988H30.453C30.0263 14.4988 29.7263 14.2721 29.553 13.8188L29.053 12.4188H24.173L23.673 13.8188ZM26.613 4.35877L25.193 8.51877H28.033L26.613 4.35877Z" fill="black"/>
<path d="M51.8052 13.7988C51.8585 13.8788 51.8852 13.9654 51.8852 14.0588C51.8852 14.1788 51.8385 14.2854 51.7452 14.3788C51.6652 14.4588 51.5652 14.4988 51.4452 14.4988H46.2852C45.9785 14.4988 45.7385 14.3921 45.5652 14.1788L42.4852 9.71877H41.8852V13.9588C41.8852 14.1054 41.8318 14.2321 41.7252 14.3388C41.6185 14.4454 41.4918 14.4988 41.3452 14.4988H37.2252C37.0785 14.4988 36.9518 14.4454 36.8452 14.3388C36.7385 14.2321 36.6852 14.1054 36.6852 13.9588V1.03877C36.6852 0.892101 36.7385 0.765434 36.8452 0.658767C36.9518 0.5521 37.0785 0.498767 37.2252 0.498767H41.3452C41.4918 0.498767 41.6185 0.5521 41.7252 0.658767C41.8318 0.765434 41.8852 0.892101 41.8852 1.03877V5.15877H42.3252L45.2452 0.838767C45.4452 0.6121 45.6918 0.498767 45.9852 0.498767H50.8052C50.9252 0.498767 51.0252 0.545434 51.1052 0.638767C51.1985 0.718767 51.2452 0.818767 51.2452 0.938767C51.2452 1.04543 51.2118 1.13877 51.1452 1.21877L46.4052 6.99877L51.8052 13.7988Z" fill="black"/>
<path d="M53.3973 14.4988C53.2507 14.4988 53.124 14.4454 53.0173 14.3388C52.9107 14.2321 52.8573 14.1054 52.8573 13.9588V1.03877C52.8573 0.892101 52.9107 0.765434 53.0173 0.658767C53.124 0.5521 53.2507 0.498767 53.3973 0.498767H56.5973C56.744 0.498767 56.8707 0.5521 56.9773 0.658767C57.084 0.765434 57.1373 0.892101 57.1373 1.03877V10.1988H58.5573V1.03877C58.5573 0.892101 58.6107 0.765434 58.7173 0.658767C58.824 0.5521 58.9507 0.498767 59.0973 0.498767H61.9373C62.084 0.498767 62.2107 0.5521 62.3173 0.658767C62.424 0.765434 62.4773 0.892101 62.4773 1.03877V10.1988H63.9173V1.03877C63.9173 0.892101 63.9707 0.765434 64.0773 0.658767C64.184 0.5521 64.3107 0.498767 64.4573 0.498767H67.6773C67.824 0.498767 67.9507 0.5521 68.0574 0.658767C68.164 0.7521 68.2173 0.878767 68.2173 1.03877V13.9588C68.2173 14.1054 68.164 14.2321 68.0574 14.3388C67.9507 14.4454 67.824 14.4988 67.6773 14.4988H53.3973Z" fill="black"/>
<path d="M74.8695 4.95877C76.5229 4.95877 77.8229 5.38543 78.7695 6.23877C79.7162 7.0921 80.1895 8.24543 80.1895 9.69877C80.1895 10.6054 79.9762 11.4254 79.5495 12.1588C79.1362 12.8788 78.5295 13.4521 77.7295 13.8788C76.9295 14.2921 75.9829 14.4988 74.8895 14.4988H69.9095C69.7629 14.4988 69.6362 14.4454 69.5295 14.3388C69.4229 14.2321 69.3695 14.1054 69.3695 13.9588V1.03877C69.3695 0.892101 69.4229 0.765434 69.5295 0.658767C69.6362 0.5521 69.7629 0.498767 69.9095 0.498767H73.4295C73.5762 0.498767 73.7029 0.5521 73.8095 0.658767C73.9162 0.765434 73.9695 0.892101 73.9695 1.03877V4.95877H74.8695ZM81.8895 14.4988C81.7429 14.4988 81.6162 14.4454 81.5095 14.3388C81.4029 14.2321 81.3495 14.1054 81.3495 13.9588V1.03877C81.3495 0.892101 81.4029 0.765434 81.5095 0.658767C81.6162 0.5521 81.7429 0.498767 81.8895 0.498767H85.1695C85.3162 0.498767 85.4429 0.5521 85.5495 0.658767C85.6562 0.765434 85.7095 0.892101 85.7095 1.03877V13.9588C85.7095 14.1054 85.6562 14.2321 85.5495 14.3388C85.4429 14.4454 85.3162 14.4988 85.1695 14.4988H81.8895ZM74.8695 10.7588C75.2962 10.7588 75.6229 10.6588 75.8495 10.4588C76.0762 10.2588 76.1895 9.98543 76.1895 9.63877C76.1895 8.94543 75.7495 8.59877 74.8695 8.59877H73.9695V10.7588H74.8695Z" fill="black"/>
<path d="M120.154 13.8388C120.207 13.9988 120.234 14.0854 120.234 14.0988C120.234 14.3654 120.107 14.4988 119.854 14.4988H116.534C116.187 14.4988 115.947 14.3654 115.814 14.0988L113.814 9.09877H113.354V13.9588C113.354 14.1054 113.301 14.2321 113.194 14.3388C113.087 14.4454 112.961 14.4988 112.814 14.4988H110.174C110.027 14.4988 109.901 14.4454 109.794 14.3388C109.687 14.2321 109.634 14.1054 109.634 13.9588V9.09877H109.174L107.174 14.0988C107.041 14.3654 106.801 14.4988 106.454 14.4988H103.134C102.881 14.4988 102.754 14.3654 102.754 14.0988C102.754 14.0854 102.781 13.9988 102.834 13.8388L105.674 7.19877L103.174 1.15877C103.121 0.998767 103.094 0.905434 103.094 0.878767C103.094 0.758767 103.127 0.665433 103.194 0.598767C103.261 0.5321 103.347 0.498767 103.454 0.498767H106.814C107.081 0.498767 107.267 0.645434 107.374 0.938767L109.234 5.73877H109.634V1.03877C109.634 0.892101 109.687 0.765434 109.794 0.658767C109.901 0.5521 110.027 0.498767 110.174 0.498767H112.814C112.961 0.498767 113.087 0.5521 113.194 0.658767C113.301 0.765434 113.354 0.892101 113.354 1.03877V5.73877H113.754L115.614 0.938767C115.721 0.645434 115.907 0.498767 116.174 0.498767H119.534C119.641 0.498767 119.727 0.5321 119.794 0.598767C119.861 0.665433 119.894 0.758767 119.894 0.878767C119.894 0.905434 119.867 0.998767 119.814 1.15877L117.314 7.19877L120.154 13.8388Z" fill="black"/>
<path d="M135.946 8.71877C135.946 10.7588 135.266 12.2654 133.906 13.2388C132.559 14.2121 130.759 14.6988 128.506 14.6988C126.253 14.6988 124.446 14.2121 123.086 13.2388C121.739 12.2654 121.066 10.7454 121.066 8.67877V6.31877C121.066 4.95877 121.386 3.8321 122.026 2.93877C122.679 2.0321 123.566 1.36543 124.686 0.938767C125.806 0.512101 127.079 0.298767 128.506 0.298767C129.933 0.298767 131.199 0.512101 132.306 0.938767C133.426 1.36543 134.313 2.02543 134.966 2.91877C135.619 3.8121 135.946 4.9321 135.946 6.27877V8.71877ZM126.466 9.09877C126.466 9.64543 126.646 10.0654 127.006 10.3588C127.379 10.6521 127.879 10.7988 128.506 10.7988C129.133 10.7988 129.626 10.6521 129.986 10.3588C130.359 10.0521 130.546 9.62543 130.546 9.07877V5.91877C130.546 5.3721 130.359 4.9521 129.986 4.65877C129.626 4.3521 129.133 4.19877 128.506 4.19877C127.879 4.19877 127.379 4.34543 127.006 4.63877C126.646 4.9321 126.466 5.3521 126.466 5.89877V9.09877Z" fill="black"/>
<path d="M138.298 14.6988C138.152 14.6988 138.018 14.6454 137.898 14.5388C137.792 14.4321 137.738 14.3054 137.738 14.1588V10.9588C137.738 10.8121 137.792 10.6854 137.898 10.5788C138.005 10.4721 138.132 10.4188 138.278 10.4188C138.758 10.4188 139.125 9.85877 139.378 8.73877C139.632 7.61877 139.758 5.99877 139.758 3.87877V1.03877C139.758 0.892101 139.812 0.765434 139.918 0.658767C140.025 0.5521 140.152 0.498767 140.298 0.498767H151.658C151.805 0.498767 151.932 0.5521 152.038 0.658767C152.145 0.765434 152.198 0.892101 152.198 1.03877V13.9588C152.198 14.1054 152.145 14.2321 152.038 14.3388C151.932 14.4454 151.805 14.4988 151.658 14.4988H147.938C147.792 14.4988 147.665 14.4454 147.558 14.3388C147.452 14.2321 147.398 14.1054 147.398 13.9588V4.79877H144.358V5.81877C144.358 8.88543 143.845 11.1321 142.818 12.5588C141.792 13.9854 140.285 14.6988 138.298 14.6988Z" fill="black"/>
</svg>
