<svg width="152" height="15" viewBox="0 0 152 15" fill="none" xmlns="http://www.w3.org/2000/svg">
<path d="M17.4049 14.0622C17.4582 14.2222 17.4849 14.3089 17.4849 14.3222C17.4849 14.5889 17.3582 14.7222 17.1049 14.7222H13.7849C13.4382 14.7222 13.1982 14.5889 13.0649 14.3222L11.0649 9.32222H10.6049V14.1822C10.6049 14.3289 10.5515 14.4556 10.4449 14.5622C10.3382 14.6689 10.2116 14.7222 10.0649 14.7222H7.42488C7.27822 14.7222 7.15155 14.6689 7.04488 14.5622C6.93822 14.4556 6.88488 14.3289 6.88488 14.1822V9.32222H6.42488L4.42488 14.3222C4.29155 14.5889 4.05155 14.7222 3.70488 14.7222H0.384883C0.131549 14.7222 0.00488281 14.5889 0.00488281 14.3222C0.00488281 14.3089 0.0315495 14.2222 0.0848828 14.0622L2.92488 7.42222L0.424883 1.38222C0.371549 1.22222 0.344883 1.12888 0.344883 1.10222C0.344883 0.982217 0.378216 0.888883 0.444883 0.822217C0.511549 0.75555 0.598216 0.722217 0.704883 0.722217H4.06488C4.33155 0.722217 4.51822 0.868884 4.62488 1.16222L6.48488 5.96222H6.88488V1.26222C6.88488 1.11555 6.93822 0.988884 7.04488 0.882217C7.15155 0.77555 7.27822 0.722217 7.42488 0.722217H10.0649C10.2116 0.722217 10.3382 0.77555 10.4449 0.882217C10.5515 0.988884 10.6049 1.11555 10.6049 1.26222V5.96222H11.0049L12.8649 1.16222C12.9715 0.868884 13.1582 0.722217 13.4249 0.722217H16.7849C16.8916 0.722217 16.9782 0.75555 17.0449 0.822217C17.1115 0.888883 17.1449 0.982217 17.1449 1.10222C17.1449 1.12888 17.1182 1.22222 17.0649 1.38222L14.5649 7.42222L17.4049 14.0622Z" fill="white"/>
<path d="M22.8771 14.0422C22.7037 14.4956 22.4037 14.7222 21.9771 14.7222H18.1971C18.0771 14.7222 17.9704 14.6822 17.8771 14.6022C17.7971 14.5089 17.7571 14.4022 17.7571 14.2822L17.7771 14.1622L22.1371 1.38222C22.1904 1.20888 22.2904 1.05555 22.4371 0.922216C22.5837 0.788883 22.7837 0.722217 23.0371 0.722217H28.5971C28.8504 0.722217 29.0504 0.788883 29.1971 0.922216C29.3437 1.05555 29.4437 1.20888 29.4971 1.38222L33.8571 14.1622L33.8771 14.2822C33.8771 14.4022 33.8304 14.5089 33.7371 14.6022C33.6571 14.6822 33.5571 14.7222 33.4371 14.7222H29.6571C29.2304 14.7222 28.9304 14.4956 28.7571 14.0422L28.2571 12.6422H23.3771L22.8771 14.0422ZM25.8171 4.58222L24.3971 8.74222H27.2371L25.8171 4.58222Z" fill="white"/>
<path d="M51.0093 14.0222C51.0626 14.1022 51.0893 14.1889 51.0893 14.2822C51.0893 14.4022 51.0426 14.5089 50.9493 14.6022C50.8693 14.6822 50.7693 14.7222 50.6493 14.7222H45.4893C45.1826 14.7222 44.9426 14.6156 44.7693 14.4022L41.6893 9.94222H41.0893V14.1822C41.0893 14.3289 41.0359 14.4556 40.9293 14.5622C40.8226 14.6689 40.6959 14.7222 40.5493 14.7222H36.4293C36.2826 14.7222 36.1559 14.6689 36.0493 14.5622C35.9426 14.4556 35.8893 14.3289 35.8893 14.1822V1.26222C35.8893 1.11555 35.9426 0.988884 36.0493 0.882217C36.1559 0.77555 36.2826 0.722217 36.4293 0.722217H40.5493C40.6959 0.722217 40.8226 0.77555 40.9293 0.882217C41.0359 0.988884 41.0893 1.11555 41.0893 1.26222V5.38222H41.5293L44.4493 1.06222C44.6493 0.83555 44.8959 0.722217 45.1893 0.722217H50.0093C50.1293 0.722217 50.2293 0.768883 50.3093 0.862217C50.4026 0.942217 50.4493 1.04222 50.4493 1.16222C50.4493 1.26888 50.4159 1.36222 50.3493 1.44222L45.6093 7.22222L51.0093 14.0222Z" fill="white"/>
<path d="M52.6014 14.7222C52.4548 14.7222 52.3281 14.6689 52.2214 14.5622C52.1148 14.4556 52.0614 14.3289 52.0614 14.1822V1.26222C52.0614 1.11555 52.1148 0.988884 52.2214 0.882217C52.3281 0.77555 52.4548 0.722217 52.6014 0.722217H55.8014C55.9481 0.722217 56.0748 0.77555 56.1814 0.882217C56.2881 0.988884 56.3414 1.11555 56.3414 1.26222V10.4222H57.7614V1.26222C57.7614 1.11555 57.8148 0.988884 57.9214 0.882217C58.0281 0.77555 58.1548 0.722217 58.3014 0.722217H61.1414C61.2881 0.722217 61.4148 0.77555 61.5214 0.882217C61.6281 0.988884 61.6814 1.11555 61.6814 1.26222V10.4222H63.1214V1.26222C63.1214 1.11555 63.1748 0.988884 63.2814 0.882217C63.3881 0.77555 63.5148 0.722217 63.6614 0.722217H66.8814C67.0281 0.722217 67.1548 0.77555 67.2615 0.882217C67.3681 0.97555 67.4214 1.10222 67.4214 1.26222V14.1822C67.4214 14.3289 67.3681 14.4556 67.2615 14.5622C67.1548 14.6689 67.0281 14.7222 66.8814 14.7222H52.6014Z" fill="white"/>
<path d="M74.0736 5.18222C75.727 5.18222 77.027 5.60888 77.9736 6.46222C78.9203 7.31555 79.3936 8.46888 79.3936 9.92222C79.3936 10.8289 79.1803 11.6489 78.7536 12.3822C78.3403 13.1022 77.7336 13.6756 76.9336 14.1022C76.1336 14.5155 75.187 14.7222 74.0936 14.7222H69.1136C68.967 14.7222 68.8403 14.6689 68.7336 14.5622C68.627 14.4556 68.5736 14.3289 68.5736 14.1822V1.26222C68.5736 1.11555 68.627 0.988884 68.7336 0.882217C68.8403 0.77555 68.967 0.722217 69.1136 0.722217H72.6336C72.7803 0.722217 72.907 0.77555 73.0136 0.882217C73.1203 0.988884 73.1736 1.11555 73.1736 1.26222V5.18222H74.0736ZM81.0936 14.7222C80.947 14.7222 80.8203 14.6689 80.7136 14.5622C80.607 14.4556 80.5536 14.3289 80.5536 14.1822V1.26222C80.5536 1.11555 80.607 0.988884 80.7136 0.882217C80.8203 0.77555 80.947 0.722217 81.0936 0.722217H84.3736C84.5203 0.722217 84.647 0.77555 84.7536 0.882217C84.8603 0.988884 84.9136 1.11555 84.9136 1.26222V14.1822C84.9136 14.3289 84.8603 14.4556 84.7536 14.5622C84.647 14.6689 84.5203 14.7222 84.3736 14.7222H81.0936ZM74.0736 10.9822C74.5003 10.9822 74.827 10.8822 75.0536 10.6822C75.2803 10.4822 75.3936 10.2089 75.3936 9.86222C75.3936 9.16888 74.9536 8.82222 74.0736 8.82222H73.1736V10.9822H74.0736Z" fill="white"/>
<path d="M119.358 14.0622C119.411 14.2222 119.438 14.3089 119.438 14.3222C119.438 14.5889 119.311 14.7222 119.058 14.7222H115.738C115.391 14.7222 115.151 14.5889 115.018 14.3222L113.018 9.32222H112.558V14.1822C112.558 14.3289 112.505 14.4556 112.398 14.5622C112.291 14.6689 112.165 14.7222 112.018 14.7222H109.378C109.231 14.7222 109.105 14.6689 108.998 14.5622C108.891 14.4556 108.838 14.3289 108.838 14.1822V9.32222H108.378L106.378 14.3222C106.245 14.5889 106.005 14.7222 105.658 14.7222H102.338C102.085 14.7222 101.958 14.5889 101.958 14.3222C101.958 14.3089 101.985 14.2222 102.038 14.0622L104.878 7.42222L102.378 1.38222C102.325 1.22222 102.298 1.12888 102.298 1.10222C102.298 0.982217 102.331 0.888883 102.398 0.822217C102.465 0.75555 102.551 0.722217 102.658 0.722217H106.018C106.285 0.722217 106.471 0.868884 106.578 1.16222L108.438 5.96222H108.838V1.26222C108.838 1.11555 108.891 0.988884 108.998 0.882217C109.105 0.77555 109.231 0.722217 109.378 0.722217H112.018C112.165 0.722217 112.291 0.77555 112.398 0.882217C112.505 0.988884 112.558 1.11555 112.558 1.26222V5.96222H112.958L114.818 1.16222C114.925 0.868884 115.111 0.722217 115.378 0.722217H118.738C118.845 0.722217 118.931 0.75555 118.998 0.822217C119.065 0.888883 119.098 0.982217 119.098 1.10222C119.098 1.12888 119.071 1.22222 119.018 1.38222L116.518 7.42222L119.358 14.0622Z" fill="white"/>
<path d="M135.15 8.94222C135.15 10.9822 134.47 12.4889 133.11 13.4622C131.764 14.4356 129.964 14.9222 127.71 14.9222C125.457 14.9222 123.65 14.4356 122.29 13.4622C120.944 12.4889 120.27 10.9689 120.27 8.90222V6.54222C120.27 5.18222 120.59 4.05555 121.23 3.16222C121.884 2.25555 122.77 1.58888 123.89 1.16222C125.01 0.73555 126.284 0.522217 127.71 0.522217C129.137 0.522217 130.404 0.73555 131.51 1.16222C132.63 1.58888 133.517 2.24888 134.17 3.14222C134.824 4.03555 135.15 5.15555 135.15 6.50222V8.94222ZM125.67 9.32222C125.67 9.86888 125.85 10.2889 126.21 10.5822C126.584 10.8756 127.084 11.0222 127.71 11.0222C128.337 11.0222 128.83 10.8756 129.19 10.5822C129.564 10.2756 129.75 9.84888 129.75 9.30222V6.14222C129.75 5.59555 129.564 5.17555 129.19 4.88222C128.83 4.57555 128.337 4.42222 127.71 4.42222C127.084 4.42222 126.584 4.56888 126.21 4.86222C125.85 5.15555 125.67 5.57555 125.67 6.12222V9.32222Z" fill="white"/>
<path d="M137.502 14.9222C137.356 14.9222 137.222 14.8689 137.102 14.7622C136.996 14.6556 136.942 14.5289 136.942 14.3822V11.1822C136.942 11.0356 136.996 10.9089 137.102 10.8022C137.209 10.6956 137.336 10.6422 137.482 10.6422C137.962 10.6422 138.329 10.0822 138.582 8.96222C138.836 7.84222 138.962 6.22222 138.962 4.10222V1.26222C138.962 1.11555 139.016 0.988884 139.122 0.882217C139.229 0.77555 139.356 0.722217 139.502 0.722217H150.862C151.009 0.722217 151.136 0.77555 151.242 0.882217C151.349 0.988884 151.402 1.11555 151.402 1.26222V14.1822C151.402 14.3289 151.349 14.4556 151.242 14.5622C151.136 14.6689 151.009 14.7222 150.862 14.7222H147.142C146.996 14.7222 146.869 14.6689 146.762 14.5622C146.656 14.4556 146.602 14.3289 146.602 14.1822V5.02222H143.562V6.04222C143.562 9.10888 143.049 11.3556 142.022 12.7822C140.996 14.2089 139.489 14.9222 137.502 14.9222Z" fill="white"/>
</svg>
