<svg width="24" height="24" viewBox="0 0 24 24" fill="none" xmlns="http://www.w3.org/2000/svg">
<mask id="mask0_971_273" style="mask-type:alpha" maskUnits="userSpaceOnUse" x="-1" y="0" width="25" height="24">
<rect x="-0.000488281" width="24" height="24" fill="#D9D9D9"/>
</mask>
<g mask="url(#mask0_971_273)">
<path d="M3.99951 20C3.44951 20 2.97885 19.8043 2.58751 19.413C2.19551 19.021 1.99951 18.55 1.99951 18V6C1.99951 5.45 2.19551 4.97933 2.58751 4.588C2.97885 4.196 3.44951 4 3.99951 4H19.9995C20.5495 4 21.0205 4.196 21.4125 4.588C21.8038 4.97933 21.9995 5.45 21.9995 6V18C21.9995 18.55 21.8038 19.021 21.4125 19.413C21.0205 19.8043 20.5495 20 19.9995 20H3.99951ZM11.9995 13L3.99951 8V18H19.9995V8L11.9995 13ZM11.9995 11L19.9995 6H3.99951L11.9995 11ZM3.99951 8V6V18V8Z" fill="#F1F1F1"/>
</g>
</svg>
