<svg width="15" height="16" viewBox="0 0 15 16" fill="none" xmlns="http://www.w3.org/2000/svg">
<mask id="mask0_511_2307" style="mask-type:alpha" maskUnits="userSpaceOnUse" x="0" y="0" width="16" height="16">
<rect x="0.00488281" y="0.5" width="15" height="15" fill="#D9D9D9"/>
</mask>
<g mask="url(#mask0_511_2307)">
<path d="M12.4736 13.625C11.1299 13.625 9.82009 13.3254 8.54426 12.7262C7.26801 12.1275 6.1378 11.3358 5.15363 10.3513C4.16905 9.36708 3.37738 8.23688 2.77863 6.96062C2.17947 5.68479 1.87988 4.375 1.87988 3.03125C1.87988 2.84375 1.94238 2.6875 2.06738 2.5625C2.19238 2.4375 2.34863 2.375 2.53613 2.375H5.06738C5.21322 2.375 5.34342 2.42187 5.45801 2.51562C5.57259 2.60937 5.6403 2.72917 5.66113 2.875L6.06738 5.0625C6.08822 5.20833 6.08572 5.34104 6.05988 5.46062C6.03363 5.58062 5.97363 5.6875 5.87988 5.78125L4.36426 7.3125C4.80176 8.0625 5.35134 8.76562 6.01301 9.42188C6.67426 10.0781 7.40072 10.6458 8.19238 11.125L9.66113 9.65625C9.75488 9.5625 9.87738 9.49208 10.0286 9.445C10.1795 9.39833 10.3278 9.38542 10.4736 9.40625L12.6299 9.84375C12.7757 9.875 12.8955 9.94521 12.9893 10.0544C13.083 10.164 13.1299 10.2917 13.1299 10.4375V12.9688C13.1299 13.1563 13.0674 13.3125 12.9424 13.4375C12.8174 13.5625 12.6611 13.625 12.4736 13.625ZM3.77051 6.125L4.80176 5.09375L4.53613 3.625H3.14551C3.19759 4.05208 3.27051 4.47396 3.36426 4.89062C3.45801 5.30729 3.59342 5.71875 3.77051 6.125ZM9.36426 11.7188C9.77051 11.8958 10.1847 12.0365 10.6068 12.1406C11.0284 12.2448 11.4528 12.3125 11.8799 12.3438V10.9688L10.4111 10.6719L9.36426 11.7188Z" fill="#478E64"/>
</g>
</svg>
