<svg width="15" height="15" viewBox="0 0 15 15" fill="none" xmlns="http://www.w3.org/2000/svg">
<mask id="mask0_17_272" style="mask-type:alpha" maskUnits="userSpaceOnUse" x="0" y="-1" width="15" height="16">
<rect y="-0.00195312" width="15" height="15" fill="#D9D9D9"/>
</mask>
<g mask="url(#mask0_17_272)">
<path d="M12.4688 13.123C11.125 13.123 9.81521 12.8235 8.53938 12.2243C7.26312 11.6255 6.13292 10.8339 5.14875 9.8493C4.16417 8.86513 3.3725 7.73492 2.77375 6.45867C2.17458 5.18284 1.875 3.87305 1.875 2.5293C1.875 2.3418 1.9375 2.18555 2.0625 2.06055C2.1875 1.93555 2.34375 1.87305 2.53125 1.87305H5.0625C5.20833 1.87305 5.33854 1.91992 5.45313 2.01367C5.56771 2.10742 5.63542 2.22721 5.65625 2.37305L6.0625 4.56055C6.08333 4.70638 6.08083 4.83909 6.055 4.95867C6.02875 5.07867 5.96875 5.18555 5.875 5.2793L4.35938 6.81055C4.79688 7.56055 5.34646 8.26367 6.00812 8.91992C6.66937 9.57617 7.39583 10.1439 8.1875 10.623L9.65625 9.1543C9.75 9.06055 9.8725 8.99013 10.0238 8.94305C10.1746 8.89638 10.3229 8.88346 10.4688 8.9043L12.625 9.3418C12.7708 9.37305 12.8906 9.44325 12.9844 9.55242C13.0781 9.662 13.125 9.78971 13.125 9.93555V12.4668C13.125 12.6543 13.0625 12.8105 12.9375 12.9355C12.8125 13.0605 12.6563 13.123 12.4688 13.123ZM3.76562 5.62305L4.79688 4.5918L4.53125 3.12305H3.14062C3.19271 3.55013 3.26562 3.97201 3.35938 4.38867C3.45312 4.80534 3.58854 5.2168 3.76562 5.62305ZM9.35938 11.2168C9.76562 11.3939 10.1798 11.5345 10.6019 11.6387C11.0235 11.7428 11.4479 11.8105 11.875 11.8418V10.4668L10.4062 10.1699L9.35938 11.2168Z" fill="white"/>
</g>
</svg>
