<svg width="24" height="24" viewBox="0 0 24 24" fill="none" xmlns="http://www.w3.org/2000/svg">
<mask id="mask0_206_790" style="mask-type:alpha" maskUnits="userSpaceOnUse" x="0" y="-1" width="25" height="25">
<rect x="0.0100098" y="-0.00250244" width="24" height="24" fill="#D9D9D9"/>
</mask>
<g mask="url(#mask0_206_790)">
<path d="M19.96 20.9975C17.81 20.9975 15.7143 20.5182 13.673 19.5595C11.631 18.6015 9.82268 17.3348 8.24801 15.7595C6.67268 14.1848 5.40601 12.3765 4.44801 10.3345C3.48934 8.29316 3.01001 6.1975 3.01001 4.0475C3.01001 3.7475 3.11001 3.4975 3.31001 3.2975C3.51001 3.0975 3.76001 2.9975 4.06001 2.9975H8.11001C8.34334 2.9975 8.55168 3.0725 8.73501 3.2225C8.91834 3.3725 9.02668 3.56416 9.06001 3.7975L9.71001 7.2975C9.74334 7.53083 9.73934 7.74316 9.69801 7.9345C9.65601 8.1265 9.56001 8.2975 9.41001 8.4475L6.98501 10.8975C7.68501 12.0975 8.56434 13.2225 9.62301 14.2725C10.681 15.3225 11.8433 16.2308 13.11 16.9975L15.46 14.6475C15.61 14.4975 15.806 14.3848 16.048 14.3095C16.2893 14.2348 16.5267 14.2142 16.76 14.2475L20.21 14.9475C20.4433 14.9975 20.635 15.1098 20.785 15.2845C20.935 15.4598 21.01 15.6642 21.01 15.8975V19.9475C21.01 20.2475 20.91 20.4975 20.71 20.6975C20.51 20.8975 20.26 20.9975 19.96 20.9975ZM6.03501 8.9975L7.68501 7.3475L7.26001 4.9975H5.03501C5.11834 5.68083 5.23501 6.35583 5.38501 7.0225C5.53501 7.68916 5.75168 8.3475 6.03501 8.9975ZM14.985 17.9475C15.635 18.2308 16.2977 18.4558 16.973 18.6225C17.6477 18.7892 18.3267 18.8975 19.01 18.9475V16.7475L16.66 16.2725L14.985 17.9475Z" fill="white"/>
</g>
</svg>
