<svg width="24" height="25" viewBox="0 0 24 25" fill="none" xmlns="http://www.w3.org/2000/svg">
<mask id="mask0_44_411" style="mask-type:alpha" maskUnits="userSpaceOnUse" x="0" y="0" width="24" height="25">
<rect y="0.0712891" width="24" height="24" fill="#D9D9D9"/>
</mask>
<g mask="url(#mask0_44_411)">
<path d="M19.95 21.0713C17.8 21.0713 15.7043 20.592 13.663 19.6333C11.621 18.6753 9.81267 17.4086 8.238 15.8333C6.66267 14.2586 5.396 12.4503 4.438 10.4083C3.47933 8.36696 3 6.27129 3 4.12129C3 3.82129 3.1 3.57129 3.3 3.37129C3.5 3.17129 3.75 3.07129 4.05 3.07129H8.1C8.33333 3.07129 8.54167 3.14629 8.725 3.29629C8.90833 3.44629 9.01667 3.63796 9.05 3.87129L9.7 7.37129C9.73333 7.60462 9.72933 7.81696 9.688 8.00829C9.646 8.20029 9.55 8.37129 9.4 8.52129L6.975 10.9713C7.675 12.1713 8.55433 13.2963 9.613 14.3463C10.671 15.3963 11.8333 16.3046 13.1 17.0713L15.45 14.7213C15.6 14.5713 15.796 14.4586 16.038 14.3833C16.2793 14.3086 16.5167 14.288 16.75 14.3213L20.2 15.0213C20.4333 15.0713 20.625 15.1836 20.775 15.3583C20.925 15.5336 21 15.738 21 15.9713V20.0213C21 20.3213 20.9 20.5713 20.7 20.7713C20.5 20.9713 20.25 21.0713 19.95 21.0713ZM6.025 9.07129L7.675 7.42129L7.25 5.07129H5.025C5.10833 5.75462 5.225 6.42962 5.375 7.09629C5.525 7.76296 5.74167 8.42129 6.025 9.07129ZM14.975 18.0213C15.625 18.3046 16.2877 18.5296 16.963 18.6963C17.6377 18.863 18.3167 18.9713 19 19.0213V16.8213L16.65 16.3463L14.975 18.0213Z" fill="black"/>
</g>
</svg>
