<svg width="100" height="100" viewBox="0 0 100 100" fill="none" xmlns="http://www.w3.org/2000/svg">
<mask id="mask0_580_3076" style="mask-type:alpha" maskUnits="userSpaceOnUse" x="0" y="0" width="100" height="100">
<rect width="100" height="100" fill="#D9D9D9"/>
</mask>
<g mask="url(#mask0_580_3076)">
<path d="M49.9999 72.9167C54.7221 72.9167 59.011 71.5806 62.8666 68.9084C66.7194 66.2334 69.5138 62.7084 71.2499 58.3334H28.7499C30.486 62.7084 33.2819 66.2334 37.1374 68.9084C40.9902 71.5806 45.2777 72.9167 49.9999 72.9167ZM32.4999 45.8334L37.0833 41.4584L41.4582 45.8334L45.8333 41.4584L37.0833 32.5L28.1249 41.4584L32.4999 45.8334ZM58.5416 45.8334L62.9166 41.4584L67.4999 45.8334L71.8749 41.4584L62.9166 32.5L54.1666 41.4584L58.5416 45.8334ZM49.9999 91.6667C44.236 91.6667 38.8194 90.5723 33.7499 88.3834C28.6805 86.1973 24.2708 83.2292 20.5208 79.4792C16.7708 75.7292 13.8027 71.3195 11.6166 66.25C9.4277 61.1806 8.33325 55.7639 8.33325 50C8.33325 44.2361 9.4277 38.8195 11.6166 33.75C13.8027 28.6806 16.7708 24.2709 20.5208 20.5209C24.2708 16.7709 28.6805 13.8014 33.7499 11.6125C38.8194 9.42643 44.236 8.33337 49.9999 8.33337C55.7638 8.33337 61.1805 9.42643 66.2499 11.6125C71.3194 13.8014 75.7291 16.7709 79.4791 20.5209C83.2291 24.2709 86.1971 28.6806 88.3832 33.75C90.5721 38.8195 91.6666 44.2361 91.6666 50C91.6666 55.7639 90.5721 61.1806 88.3832 66.25C86.1971 71.3195 83.2291 75.7292 79.4791 79.4792C75.7291 83.2292 71.3194 86.1973 66.2499 88.3834C61.1805 90.5723 55.7638 91.6667 49.9999 91.6667ZM49.9999 83.3334C59.3055 83.3334 67.1874 80.1042 73.6457 73.6459C80.1041 67.1875 83.3333 59.3056 83.3333 50C83.3333 40.6945 80.1041 32.8125 73.6457 26.3542C67.1874 19.8959 59.3055 16.6667 49.9999 16.6667C40.6944 16.6667 32.8124 19.8959 26.3541 26.3542C19.8958 32.8125 16.6666 40.6945 16.6666 50C16.6666 59.3056 19.8958 67.1875 26.3541 73.6459C32.8124 80.1042 40.6944 83.3334 49.9999 83.3334Z" fill="#1C1B1F"/>
</g>
</svg>
