<svg width="24" height="25" viewBox="0 0 24 25" fill="none" xmlns="http://www.w3.org/2000/svg">
<g clip-path="url(#clip0_17_281)">
<path d="M12 20.498C14.1217 20.498 16.1566 19.6552 17.6569 18.1549C19.1571 16.6546 20 14.6198 20 12.498C20 10.3763 19.1571 8.34148 17.6569 6.84119C16.1566 5.3409 14.1217 4.49805 12 4.49805C9.87827 4.49805 7.84344 5.3409 6.34315 6.84119C4.84285 8.34148 4 10.3763 4 12.498C4 14.6198 4.84285 16.6546 6.34315 18.1549C7.84344 19.6552 9.87827 20.498 12 20.498ZM12 22.498C6.477 22.498 2 18.021 2 12.498C2 6.97505 6.477 2.49805 12 2.49805C17.523 2.49805 22 6.97505 22 12.498C22 18.021 17.523 22.498 12 22.498ZM8.89 13.668L6.392 12.889C5.852 12.724 5.849 12.352 6.513 12.085L16.246 8.32505C16.811 8.09505 17.131 8.38605 16.948 9.11505L15.291 16.935C15.175 17.492 14.84 17.625 14.375 17.368L11.824 15.48L10.635 16.628C10.513 16.746 10.414 16.847 10.226 16.872C10.039 16.898 9.885 16.842 9.772 16.532L8.902 13.661L8.89 13.668Z" fill="white"/>
</g>
<defs>
<clipPath id="clip0_17_281">
<rect width="24" height="24" fill="white" transform="translate(0 0.498047)"/>
</clipPath>
</defs>
</svg>
