<svg width="24" height="25" viewBox="0 0 24 25" fill="none" xmlns="http://www.w3.org/2000/svg">
<g clip-path="url(#clip0_971_476)">
<path d="M7.25301 18.5653L7.97701 18.9883C9.19795 19.7004 10.5866 20.0742 12 20.0713C13.5823 20.0713 15.129 19.6021 16.4446 18.723C17.7602 17.844 18.7855 16.5946 19.3911 15.1328C19.9966 13.6709 20.155 12.0624 19.8463 10.5106C19.5376 8.95872 18.7757 7.53326 17.6569 6.41443C16.538 5.29561 15.1126 4.53369 13.5607 4.22501C12.0089 3.91633 10.4004 4.07475 8.93855 4.68025C7.47674 5.28575 6.22731 6.31113 5.34826 7.62673C4.46921 8.94232 4.00001 10.489 4.00001 12.0713C4.00001 13.5073 4.37701 14.8843 5.08401 16.0953L5.50601 16.8193L4.85301 19.2203L7.25301 18.5653ZM2.00401 22.0713L3.35601 17.1033C2.46515 15.5761 1.99711 13.8393 2.00001 12.0713C2.00001 6.54829 6.47701 2.07129 12 2.07129C17.523 2.07129 22 6.54829 22 12.0713C22 17.5943 17.523 22.0713 12 22.0713C10.2328 22.0741 8.49667 21.6065 6.97001 20.7163L2.00401 22.0713ZM8.39101 7.37929C8.52501 7.36929 8.66001 7.36929 8.79401 7.37529C8.84801 7.37929 8.90201 7.38529 8.95601 7.39129C9.11501 7.40929 9.29001 7.50629 9.34901 7.64029C9.64701 8.31629 9.93701 8.99729 10.217 9.68029C10.279 9.83229 10.242 10.0273 10.124 10.2173C10.0429 10.3458 9.95507 10.4699 9.86101 10.5893C9.74801 10.7343 9.50501 11.0003 9.50501 11.0003C9.50501 11.0003 9.40601 11.1183 9.44401 11.2653C9.45801 11.3213 9.50401 11.4023 9.54601 11.4703L9.60501 11.5653C9.86101 11.9923 10.205 12.4253 10.625 12.8333C10.745 12.9493 10.862 13.0683 10.988 13.1793C11.456 13.5923 11.986 13.9293 12.558 14.1793L12.563 14.1813C12.648 14.2183 12.691 14.2383 12.815 14.2913C12.877 14.3173 12.941 14.3403 13.006 14.3573C13.0732 14.3744 13.1439 14.3712 13.2093 14.348C13.2746 14.3249 13.3316 14.2829 13.373 14.2273C14.097 13.3503 14.163 13.2933 14.169 13.2933V13.2953C14.2193 13.2484 14.2791 13.2128 14.3443 13.1909C14.4095 13.169 14.4786 13.1613 14.547 13.1683C14.607 13.1723 14.668 13.1833 14.724 13.2083C15.255 13.4513 16.124 13.8303 16.124 13.8303L16.706 14.0913C16.804 14.1383 16.893 14.2493 16.896 14.3563C16.9 14.4233 16.906 14.5313 16.883 14.7293C16.851 14.9883 16.773 15.2993 16.695 15.4623C16.6416 15.5735 16.5707 15.6755 16.485 15.7643C16.3841 15.8702 16.2736 15.9666 16.155 16.0523C16.114 16.0832 16.0723 16.1132 16.03 16.1423C15.9056 16.2212 15.7778 16.2946 15.647 16.3623C15.3895 16.499 15.1052 16.5776 14.814 16.5923C14.629 16.6023 14.444 16.6163 14.258 16.6063C14.25 16.6063 13.69 16.5193 13.69 16.5193C12.2683 16.1453 10.9534 15.4448 9.85001 14.4733C9.62401 14.2743 9.41501 14.0603 9.20101 13.8473C8.31101 12.9623 7.63901 12.0073 7.23101 11.1053C7.02218 10.6626 6.90938 10.1807 6.90001 9.69129C6.89589 9.08414 7.09436 8.49296 7.46401 8.01129C7.53701 7.91729 7.60601 7.81929 7.72501 7.70629C7.85201 7.58629 7.93201 7.52229 8.01901 7.47829C8.13469 7.42032 8.26088 7.38631 8.39001 7.37829L8.39101 7.37929Z" fill="#F1F1F1"/>
</g>
<defs>
<clipPath id="clip0_971_476">
<rect width="24" height="24" fill="white" transform="translate(0 0.0712891)"/>
</clipPath>
</defs>
</svg>
