<svg width="24" height="25" viewBox="0 0 24 25" fill="none" xmlns="http://www.w3.org/2000/svg">
<g clip-path="url(#clip0_17_275)">
<path d="M12 9.49805C11.2044 9.49805 10.4413 9.81412 9.87868 10.3767C9.31607 10.9393 9 11.7024 9 12.498C9 13.2937 9.31607 14.0568 9.87868 14.6194C10.4413 15.182 11.2044 15.498 12 15.498C12.7956 15.498 13.5587 15.182 14.1213 14.6194C14.6839 14.0568 15 13.2937 15 12.498C15 11.7024 14.6839 10.9393 14.1213 10.3767C13.5587 9.81412 12.7956 9.49805 12 9.49805ZM12 7.49805C13.3261 7.49805 14.5979 8.02483 15.5355 8.96251C16.4732 9.9002 17 11.172 17 12.498C17 13.8241 16.4732 15.0959 15.5355 16.0336C14.5979 16.9713 13.3261 17.498 12 17.498C10.6739 17.498 9.40215 16.9713 8.46447 16.0336C7.52678 15.0959 7 13.8241 7 12.498C7 11.172 7.52678 9.9002 8.46447 8.96251C9.40215 8.02483 10.6739 7.49805 12 7.49805ZM18.5 7.24805C18.5 7.57957 18.3683 7.89751 18.1339 8.13193C17.8995 8.36635 17.5815 8.49805 17.25 8.49805C16.9185 8.49805 16.6005 8.36635 16.3661 8.13193C16.1317 7.89751 16 7.57957 16 7.24805C16 6.91653 16.1317 6.59858 16.3661 6.36416C16.6005 6.12974 16.9185 5.99805 17.25 5.99805C17.5815 5.99805 17.8995 6.12974 18.1339 6.36416C18.3683 6.59858 18.5 6.91653 18.5 7.24805ZM12 4.49805C9.526 4.49805 9.122 4.50505 7.971 4.55605C7.187 4.59305 6.661 4.69805 6.173 4.88805C5.739 5.05605 5.426 5.25705 5.093 5.59105C4.78001 5.89345 4.53935 6.26263 4.389 6.67105C4.199 7.16105 4.094 7.68605 4.058 8.46905C4.006 9.57305 4 9.95905 4 12.498C4 14.972 4.007 15.376 4.058 16.527C4.095 17.31 4.2 17.837 4.389 18.324C4.559 18.759 4.759 19.072 5.091 19.404C5.428 19.74 5.741 19.941 6.171 20.107C6.665 20.298 7.191 20.404 7.971 20.44C9.075 20.492 9.461 20.498 12 20.498C14.474 20.498 14.878 20.491 16.029 20.44C16.811 20.403 17.338 20.298 17.826 20.109C18.259 19.94 18.574 19.739 18.906 19.407C19.243 19.07 19.444 18.757 19.61 18.327C19.8 17.834 19.906 17.307 19.942 16.527C19.994 15.423 20 15.037 20 12.498C20 10.024 19.993 9.62005 19.942 8.46905C19.905 7.68705 19.8 7.15905 19.61 6.67105C19.4593 6.26305 19.2191 5.89401 18.907 5.59105C18.6047 5.27789 18.2355 5.03721 17.827 4.88705C17.337 4.69705 16.811 4.59205 16.029 4.55605C14.925 4.50405 14.539 4.49805 12 4.49805ZM12 2.49805C14.717 2.49805 15.056 2.50805 16.122 2.55805C17.187 2.60805 17.912 2.77505 18.55 3.02305C19.21 3.27705 19.766 3.62105 20.322 4.17605C20.8305 4.67594 21.224 5.28064 21.475 5.94805C21.722 6.58505 21.89 7.31105 21.94 8.37605C21.987 9.44205 22 9.78105 22 12.498C22 15.215 21.99 15.554 21.94 16.62C21.89 17.685 21.722 18.41 21.475 19.048C21.2247 19.7158 20.8311 20.3207 20.322 20.82C19.822 21.3284 19.2173 21.7218 18.55 21.973C17.913 22.22 17.187 22.388 16.122 22.438C15.056 22.485 14.717 22.498 12 22.498C9.283 22.498 8.944 22.488 7.878 22.438C6.813 22.388 6.088 22.22 5.45 21.973C4.78233 21.7225 4.17753 21.329 3.678 20.82C3.16941 20.3202 2.77593 19.7155 2.525 19.048C2.277 18.411 2.11 17.685 2.06 16.62C2.013 15.554 2 15.215 2 12.498C2 9.78105 2.01 9.44205 2.06 8.37605C2.11 7.31005 2.277 6.58605 2.525 5.94805C2.77524 5.28023 3.1688 4.67537 3.678 4.17605C4.17767 3.66728 4.78243 3.27378 5.45 3.02305C6.088 2.77505 6.812 2.60805 7.878 2.55805C8.944 2.51105 9.283 2.49805 12 2.49805Z" fill="white"/>
</g>
<defs>
<clipPath id="clip0_17_275">
<rect width="24" height="24" fill="white" transform="translate(0 0.498047)"/>
</clipPath>
</defs>
</svg>
