<svg width="15" height="16" viewBox="0 0 15 16" fill="none" xmlns="http://www.w3.org/2000/svg">
<mask id="mask0_209_766" style="mask-type:alpha" maskUnits="userSpaceOnUse" x="0" y="0" width="15" height="16">
<rect y="0.237213" width="15" height="15" fill="#D9D9D9"/>
</mask>
<g mask="url(#mask0_209_766)">
<path d="M6.84375 11.706L4.625 9.48721L5.53125 8.58096L6.84375 9.89346L9.46875 7.26846L10.375 8.17471L6.84375 11.706ZM3.125 13.9872C2.78125 13.9872 2.48687 13.8649 2.24187 13.6203C1.99729 13.3753 1.875 13.081 1.875 12.7372V3.98721C1.875 3.64346 1.99729 3.3493 2.24187 3.10471C2.48687 2.85971 2.78125 2.73721 3.125 2.73721H3.75V1.48721H5V2.73721H10V1.48721H11.25V2.73721H11.875C12.2188 2.73721 12.5131 2.85971 12.7581 3.10471C13.0027 3.3493 13.125 3.64346 13.125 3.98721V12.7372C13.125 13.081 13.0027 13.3753 12.7581 13.6203C12.5131 13.8649 12.2188 13.9872 11.875 13.9872H3.125ZM3.125 12.7372H11.875V6.48721H3.125V12.7372ZM3.125 5.23721H11.875V3.98721H3.125V5.23721Z" fill="white"/>
</g>
</svg>
