<svg width="21" height="25" viewBox="0 0 21 25" fill="none" xmlns="http://www.w3.org/2000/svg">
<path fill-rule="evenodd" clip-rule="evenodd" d="M17.2724 9.74987C17.2724 13.2013 14.4715 15.9992 11.0165 15.9992C7.56142 15.9992 4.76054 13.2013 4.76054 9.74987C4.76054 6.29844 7.56142 3.50049 11.0165 3.50049C14.4715 3.50049 17.2724 6.29844 17.2724 9.74987ZM10.9703 14.6452H10.9584L10.9644 14.6452L10.9703 14.6452ZM10.3558 14.6074C10.3789 14.4387 10.3909 14.2661 10.3909 14.0905C10.3909 12.1297 8.89707 10.5401 7.05438 10.5401C6.7561 10.5401 6.46697 10.5818 6.19184 10.6599C6.56221 12.7297 8.24882 14.3438 10.3558 14.6074ZM6.12289 9.54156C6.25833 6.98777 8.37414 4.95869 10.9644 4.95869C13.5546 4.95869 15.6704 6.98777 15.8058 9.54156H6.12289ZM15.7416 10.6334C15.3867 12.6822 13.7433 14.29 11.6753 14.5935C11.6534 14.4292 11.6421 14.2612 11.6421 14.0905C11.6421 12.1297 13.1359 10.5401 14.9786 10.5401C15.2411 10.5401 15.4965 10.5724 15.7416 10.6334ZM11.5378 10.6873C11.5378 10.9749 11.3044 11.2081 11.0164 11.2081C10.7285 11.2081 10.4951 10.9749 10.4951 10.6873C10.4951 10.3997 10.7285 10.1665 11.0164 10.1665C11.3044 10.1665 11.5378 10.3997 11.5378 10.6873Z" fill="black"/>
<path d="M10.8008 0C13.6576 0 16.0399 0.979068 17.9476 2.93721C19.7461 4.78258 20.6972 7.05346 20.8008 9.74987H18.2957C18.1966 7.74259 17.4917 6.05997 16.1809 4.70203C14.7629 3.23384 12.9695 2.49975 10.8008 2.49975C8.63205 2.49975 6.8387 3.23384 5.42069 4.70203C4.10989 6.05997 3.40495 7.74259 3.30583 9.74987H0.800781C0.904372 7.05346 1.85544 4.78258 3.65399 2.93721C5.56162 0.979068 7.94391 0 10.8008 0Z" fill="black"/>
<path d="M17.4922 13.4995C17.2075 14.1112 16.8484 14.7463 16.4149 15.4047C15.1537 17.3212 13.2823 19.4147 10.8008 21.6853C8.31925 19.4147 6.44747 17.3212 5.18544 15.4047C4.75214 14.7463 4.39325 14.1112 4.10882 13.4995H1.40889C1.82325 14.6354 2.44606 15.8171 3.27738 17.0446C4.93564 19.4926 7.44344 22.1436 10.8008 24.9975C14.1581 22.1436 16.6655 19.4926 18.3229 17.0446C19.1547 15.8171 19.7778 14.6354 20.1924 13.4995H17.4922Z" fill="black"/>
</svg>
